<?xml version="1.0" encoding="UTF-8"?>
<svg id="Layer_1" data-name="Layer 1" xmlns="http://www.w3.org/2000/svg" width="512" height="512" viewBox="0 0 512 512">
  <path d="M143.59,379.7c-35.44,0-64.99-11.91-88.66-35.75-23.68-23.83-35.51-53.15-35.51-87.95s11.83-64.51,35.51-88.19c23.67-23.67,53.22-35.51,88.66-35.51,22.88,0,43.74,5.49,62.55,16.46,18.81,10.98,32.92,25.71,42.33,44.21l-43.74,25.4c-5.33-11.29-13.4-20.14-24.22-26.57-10.82-6.42-23.28-9.64-37.39-9.64-20.69,0-38.02,7.05-51.97,21.16-13.96,14.11-20.93,31.67-20.93,52.68s6.97,38.57,20.93,52.68c13.95,14.11,31.28,21.17,51.97,21.17,13.79,0,26.26-3.29,37.39-9.88,11.13-6.58,19.52-15.36,25.16-26.34l43.74,24.93c-10.04,18.81-24.46,33.71-43.27,44.68-18.81,10.97-39.67,16.46-62.55,16.46Z"/>
  <path d="M303.5,277.64c3.76,17.87,12.38,31.59,25.87,41.15,13.48,9.57,29.94,14.34,49.38,14.34,26.96,0,47.19-9.71,60.67-29.16l41.86,24.46c-23.21,34.18-57.54,51.27-103,51.27-38.26,0-69.14-11.68-92.65-35.04-23.52-23.36-35.27-52.91-35.27-88.66s11.6-64.51,34.8-88.19c23.2-23.67,52.99-35.51,89.36-35.51,34.49,0,62.79,12.07,84.89,36.22,22.11,24.15,33.16,53.46,33.16,87.95,0,5.34-.63,12.39-1.88,21.17h-187.19ZM303.03,236.25h138.28c-3.45-19.12-11.37-33.55-23.75-43.27-12.39-9.72-26.89-14.58-43.5-14.58-18.81,0-34.5,5.17-47.03,15.52-12.54,10.35-20.54,24.46-23.99,42.33Z"/>
</svg>