<?xml version="1.0" encoding="UTF-8"?>
<svg id="Layer_1" xmlns="http://www.w3.org/2000/svg" viewBox="0 0 300 30">
  <path d="M24.53,27.18h-1.96l-3.86-8.43H6.82l-3.86,8.43h-1.96L12.25,2.64h1.04l11.25,24.54ZM12.75,5.71l-5.21,11.46h10.46l-5.25-11.46Z"/>
  <path d="M42.84,2.82c5.96,0,8.07,3.04,8.07,6.29,0,2.82-1.54,4.79-4.64,5.93,1.14.61,2.11,2,3.25,3.71l5.5,8.43h-2.21l-4.25-6.68c-2.93-4.61-3.86-5-6.78-5h-3.28v11.68h-1.89V2.82h6.25ZM38.48,13.93h4.03c4.28,0,6.35-1.86,6.35-4.79,0-2.75-1.96-4.75-6.43-4.75h-3.96v9.54Z"/>
  <path d="M77.61,6.11c-2.5-1.43-3.78-1.86-5.46-1.86-2.93,0-5.14,2-5.14,4.64,0,6.5,11.6,3.39,11.6,11.93,0,3.75-3.11,6.68-7.07,6.68-2,0-4.11-.71-6.25-2.14v-2.21c2.71,1.96,4.25,2.61,6.14,2.61,2.89,0,5.14-2.11,5.14-4.86,0-6.93-11.6-3.89-11.6-11.93,0-3.61,3.14-6.46,7-6.46,1.89,0,3.75.5,5.64,1.54v2.07Z"/>
  <path d="M124.34,4.39h-11.39v9.75h11.1v1.57h-11.1v9.89h11.67v1.57h-13.57V2.82h13.28v1.57Z"/>
  <path d="M156.32,2.82h2.43l-10.46,11.89,11.07,12.46h-2.43l-9.85-11.14-9.85,11.14h-2.43l11.03-12.46-10.46-11.89h2.43l9.28,10.5,9.25-10.5Z"/>
  <path d="M173.13,27.18h-1.89V2.82h1.89v24.36Z"/>
  <path d="M196.33,2.82c10.35,0,13.28,6.82,13.28,12.18,0,5.64-3.32,12.18-12.96,12.18h-8.85V2.82h8.53ZM189.69,25.61h6.85c5.85,0,11.03-3.75,11.03-10.61,0-6.25-4.53-10.61-11.14-10.61h-6.75v21.21Z"/>
  <path d="M236.64,4.39h-11.39v9.75h11.1v1.57h-11.1v9.89h11.67v1.57h-13.57V2.82h13.28v1.57Z"/>
  <path d="M271.84,27.18h-1.57l-18.49-21.29v21.29h-1.89V2.82h1.61l18.46,21.29V2.82h1.89v24.36Z"/>
  <path d="M298,6.11c-2.5-1.43-3.78-1.86-5.46-1.86-2.93,0-5.14,2-5.14,4.64,0,6.5,11.6,3.39,11.6,11.93,0,3.75-3.11,6.68-7.07,6.68-2,0-4.11-.71-6.25-2.14v-2.21c2.71,1.96,4.25,2.61,6.14,2.61,2.89,0,5.14-2.11,5.14-4.86,0-6.93-11.6-3.89-11.6-11.93,0-3.61,3.14-6.46,7-6.46,1.89,0,3.75.5,5.64,1.54v2.07Z"/>
</svg>